<?xml version="1.0" standalone="no"?><!DOCTYPE svg PUBLIC "-//W3C//DTD SVG 1.1//EN" "http://www.w3.org/Graphics/SVG/1.1/DTD/svg11.dtd"><svg t="1689823398073" class="icon" viewBox="0 0 1024 1024" version="1.1" xmlns="http://www.w3.org/2000/svg" p-id="4700" xmlns:xlink="http://www.w3.org/1999/xlink" width="200" height="200"><path d="M160 352h768v112H160z" fill="#E0EBFE" p-id="4701"></path><path d="M544 1024c70.592 0 128-57.408 128-128v-128c0-70.592 57.408-128 128-128h128a32 32 0 0 0 32-32v-256c0-0.672-0.32-1.28-0.384-1.92A552.672 552.672 0 0 0 858.048 13.44c-0.512-0.768-1.28-1.12-1.888-1.792a31.008 31.008 0 0 0-4.768-4.48 31.104 31.104 0 0 0-4.864-3.264 30.912 30.912 0 0 0-5.632-2.112 31.04 31.04 0 0 0-6.304-1.28C833.696 0.448 832.928 0 832 0H64c-1.184 0-2.176 0.544-3.328 0.672a30.816 30.816 0 0 0-12.16 3.872c-1.024 0.576-2.144 0.704-3.104 1.408-0.736 0.512-1.12 1.344-1.792 1.92a31.104 31.104 0 0 0-4.384 4.672c-1.28 1.6-2.432 3.2-3.36 4.992a30.848 30.848 0 0 0-2.08 5.504 30.976 30.976 0 0 0-1.28 6.432C32.448 30.336 32 31.104 32 32c0 1.152 0.544 2.144 0.64 3.296a30.72 30.72 0 0 0 3.936 12.192c0.544 1.024 0.672 2.144 1.376 3.104a488.48 488.48 0 0 1 89.728 300.224c0 0.64 0.32 1.248 0.32 1.92V608a32 32 0 0 0 32 32h128c70.592 0 128 57.408 128 128v128c0 70.592 57.408 128 128 128z m352-576H192v-64h704v64zM814.688 64a488.448 488.448 0 0 1 80.864 256h-64.032a537.664 537.664 0 0 0-72.096-256h55.264z m-92.928 0a504.608 504.608 0 0 1 77.76 256h-96a537.664 537.664 0 0 0-72.096-256h90.336z m-128 0a504.608 504.608 0 0 1 77.76 256h-96a537.664 537.664 0 0 0-72.096-256h90.336z m-128 0a504.608 504.608 0 0 1 77.76 256h-96a537.664 537.664 0 0 0-72.096-256h90.336z m-128 0a504.608 504.608 0 0 1 77.76 256h-96a537.664 537.664 0 0 0-72.096-256h90.336zM121.6 64h88.16a504.608 504.608 0 0 1 77.76 256H191.488A553.568 553.568 0 0 0 121.6 64zM288 576H192v-96h704v96h-96c-105.888 0-192 86.112-192 192v128c0 35.296-28.704 64-64 64s-64-28.704-64-64v-128c0-105.888-86.112-192-192-192z" fill="#5465CF" p-id="4702"></path><path d="M544 896m-32 0a32 32 0 1 0 64 0 32 32 0 1 0-64 0Z" fill="#5465CF" p-id="4703"></path></svg>