<?xml version="1.0" standalone="no"?><!DOCTYPE svg PUBLIC "-//W3C//DTD SVG 1.1//EN" "http://www.w3.org/Graphics/SVG/1.1/DTD/svg11.dtd"><svg t="1688980332711" class="icon" viewBox="0 0 1024 1024" version="1.1" xmlns="http://www.w3.org/2000/svg" p-id="6773" xmlns:xlink="http://www.w3.org/1999/xlink" width="200" height="200"><path d="M744.594286 896A616.96 616.96 0 0 1 128 279.405714a17.92 17.92 0 0 1 5.485714-13.165714l99.474286-99.474286a18.285714 18.285714 0 0 1 25.965714 0l166.4 166.034286a18.651429 18.651429 0 0 1 0 25.965714l-87.04 86.674286 240.274286 240.274286 86.674286-87.04a19.017143 19.017143 0 0 1 13.165714-5.12 18.285714 18.285714 0 0 1 12.8 5.12l166.034286 166.4a18.285714 18.285714 0 0 1 0 25.965714l-99.474286 99.474286a17.92 17.92 0 0 1-13.165714 5.485714zM164.571429 286.72A580.754286 580.754286 0 0 0 737.28 859.428571l81.188571-81.554285-140.068571-140.434286-87.04 87.04a18.651429 18.651429 0 0 1-25.965714 0l-265.874286-265.874286a18.651429 18.651429 0 0 1 0-25.965714l87.04-87.04-140.434286-140.068571zM877.714286 463.725714a18.285714 18.285714 0 0 1-18.285715-18.285714 281.234286 281.234286 0 0 0-280.868571-280.868571 18.285714 18.285714 0 0 1 0-36.571429 317.44 317.44 0 0 1 317.44 317.44 18.285714 18.285714 0 0 1-18.285714 18.285714z" p-id="6774"></path><path d="M744.594286 463.725714a18.285714 18.285714 0 0 1-18.285715-18.285714 146.285714 146.285714 0 0 0-146.285714-146.285714 18.285714 18.285714 0 0 1-18.285714-18.285715 18.285714 18.285714 0 0 1 18.285714-18.285714 182.857143 182.857143 0 0 1 182.857143 182.857143 18.285714 18.285714 0 0 1-18.285714 18.285714z" p-id="6775"></path></svg>