<?xml version="1.0" standalone="no"?><!DOCTYPE svg PUBLIC "-//W3C//DTD SVG 1.1//EN" "http://www.w3.org/Graphics/SVG/1.1/DTD/svg11.dtd"><svg t="1695338100418" class="icon" viewBox="0 0 1024 1024" version="1.1" xmlns="http://www.w3.org/2000/svg" p-id="16204" xmlns:xlink="http://www.w3.org/1999/xlink" width="200" height="200"><path d="M460.8 469.333333V85.333333c4.266667-25.6 25.6-42.666667 55.466667-42.666666 25.6 0 46.933333 17.066667 55.466666 42.666666v401.066667c8.533333 4.266667 12.8 4.266667 21.333334 8.533333V221.866667c4.266667-25.6 25.6-42.666667 55.466666-42.666667 25.6 0 46.933333 17.066667 55.466667 42.666667v392.533333l76.8-128c17.066667-21.333333 46.933333-25.6 68.266667-8.533333s34.133333 42.666667 21.333333 64c-85.333333 166.4-153.6 277.333333-204.8 328.533333-46.933333 64-123.733333 106.666667-213.333333 106.666667-123.733333 0-226.133333-85.333333-256-200.533334 0-4.266667-4.266667-12.8-4.266667-21.333333-4.266667-12.8-4.266667-29.866667-4.266667-46.933333v-8.533334c-4.266667-81.066667-4.266667-226.133333 0-435.2 4.266667-25.6 25.6-42.666667 55.466667-42.666666s46.933333 17.066667 55.466667 42.666666V512c8.533333-4.266667 12.8-8.533333 21.333333-12.8V132.266667c4.266667-25.6 25.6-42.666667 55.466667-42.666667 25.6 0 46.933333 17.066667 55.466666 42.666667V469.333333h29.866667z" p-id="16205" fill="#ffffff"></path></svg>