<?xml version="1.0" standalone="no"?><!DOCTYPE svg PUBLIC "-//W3C//DTD SVG 1.1//EN" "http://www.w3.org/Graphics/SVG/1.1/DTD/svg11.dtd"><svg t="1695301769530" class="icon" viewBox="0 0 1024 1024" version="1.1" xmlns="http://www.w3.org/2000/svg" p-id="5209" xmlns:xlink="http://www.w3.org/1999/xlink" width="200" height="200"><path d="M1024 281.3184V0h-279.5904v111.36H279.5904V0H0v281.3184h110.6688v461.3632H0V1024h279.5904v-111.36h464.8192V1024H1024v-281.3184h-110.6688V281.3184H1024zM802.656 58.6112H965.76v164.096h-163.0976V58.6176zM58.2464 222.7072V58.6176h163.0976v164.096H58.24z m163.0976 742.6816H58.24v-164.096h163.0976v164.096z m744.4096-164.096v164.096h-163.0976v-164.096H965.76z m-110.6752-58.6112h-110.6688v111.36H279.5904v-111.36H168.9216V281.3184h110.6688v-111.36h464.8192v111.36h110.6688v461.3632z" fill="#ffffff" p-id="5210"></path></svg>