<?xml version="1.0" standalone="no"?><!DOCTYPE svg PUBLIC "-//W3C//DTD SVG 1.1//EN" "http://www.w3.org/Graphics/SVG/1.1/DTD/svg11.dtd"><svg t="1695255475534" class="icon" viewBox="0 0 1024 1024" version="1.1" xmlns="http://www.w3.org/2000/svg" p-id="4034" xmlns:xlink="http://www.w3.org/1999/xlink" width="200" height="200"><path d="M879.171718 5.721236H145.030803A139.334883 139.334883 0 0 0 5.797182 144.954858V308.845488c0 20.960989 17.011817 36.858937 37.972806 36.858937s37.972806-18.176316 37.972806-39.137305V144.954858c0-34.884351 28.403659-63.28801 63.288009-63.28801h734.140915c34.884351 0 63.28801 28.403659 63.28801 63.28801v734.140915c0 34.884351-28.403659 63.28801-63.28801 63.288009H145.030803c-34.884351 0-63.28801-28.403659-63.288009-63.288009v-330.414042h595.616118a37.972806 37.972806 0 0 0 37.972806-37.972806c0-0.405043-0.253152-0.810087-0.253152-1.21513a37.567763 37.567763 0 0 0-10.885538-28.099877l-172.801582-172.801582A37.972806 37.972806 0 1 0 477.672583 362.311199l110.47555 110.47555H49.08618c-0.961978 0-1.721434 0.455674-2.632781 0.556935-0.961978-0.202522-1.721434-0.658195-2.683411-0.658196a37.972806 37.972806 0 0 0-37.972806 37.972806v368.386848a139.334883 139.334883 0 0 0 139.233621 139.233622h734.140915a139.334883 139.334883 0 0 0 139.233622-139.233622v-734.140915A139.334883 139.334883 0 0 0 879.171718 5.721236z" fill="#2f2d9f" p-id="4035"></path></svg>