<?xml version="1.0" standalone="no"?><!DOCTYPE svg PUBLIC "-//W3C//DTD SVG 1.1//EN" "http://www.w3.org/Graphics/SVG/1.1/DTD/svg11.dtd"><svg t="1692155945257" class="icon" viewBox="0 0 1024 1024" version="1.1" xmlns="http://www.w3.org/2000/svg" p-id="19152" xmlns:xlink="http://www.w3.org/1999/xlink" width="200" height="200"><path d="M832 928H192c-52.928 0-96-43.072-96-96V192c0-52.928 43.072-96 96-96h640c52.928 0 96 43.072 96 96v640c0 52.928-43.072 96-96 96zM192 160c-17.632 0-32 14.368-32 32v640c0 17.664 14.368 32 32 32h640c17.664 0 32-14.336 32-32V192c0-17.632-14.336-32-32-32H192z" p-id="19153" fill="#d4237a"></path></svg>